<svg xmlns="http://www.w3.org/2000/svg" xmlns:xlink="http://www.w3.org/1999/xlink" width="123" height="123" viewBox="0 0 123 123">
  <defs>
    <clipPath id="clip-Instagram">
      <rect width="123" height="123"/>
    </clipPath>
  </defs>
  <g id="Instagram" clip-path="url(#clip-Instagram)">
    <rect width="123" height="123" fill="#fff"/>
    <g id="icon-instagram-2" transform="translate(40.925 41)">
      <path id="Path_12" data-name="Path 12" d="M34.448,43.41H9.963A8.963,8.963,0,0,1,1,34.448V9.963A8.963,8.963,0,0,1,9.963,1H34.448A8.963,8.963,0,0,1,43.41,9.963V34.448A8.963,8.963,0,0,1,34.448,43.41ZM9.963,3.827A6.135,6.135,0,0,0,3.827,9.963V34.448a6.135,6.135,0,0,0,6.135,6.135H34.448a6.135,6.135,0,0,0,6.135-6.135V9.963a6.135,6.135,0,0,0-6.135-6.135Z" transform="translate(-1 -1)" stroke="#000" stroke-width="1"/>
      <path id="Path_13" data-name="Path 13" d="M19.033,29.6A10.563,10.563,0,1,1,29.6,19.033,10.563,10.563,0,0,1,19.033,29.6Zm0-18.335a7.764,7.764,0,1,1,0,.014Z" transform="translate(2.172 2.172)" stroke="#000" stroke-width="1"/>
      <path id="Path_14" data-name="Path 14" d="M25.547,12.066a3.633,3.633,0,1,1,3.619-3.633A3.633,3.633,0,0,1,25.547,12.066Zm0-5.855a2.208,2.208,0,1,0,2.194,2.222A2.208,2.208,0,0,0,25.547,6.21Z" transform="translate(7.546 0.614)" stroke="#000" stroke-width="1"/>
    </g>
  </g>
</svg>
