<svg xmlns="http://www.w3.org/2000/svg" xmlns:xlink="http://www.w3.org/1999/xlink" width="123" height="123" viewBox="0 0 123 123">
  <defs>
    <clipPath id="clip-Linkedin">
      <rect width="123" height="123"/>
    </clipPath>
  </defs>
  <g id="Linkedin" clip-path="url(#clip-Linkedin)">
    <rect width="123" height="123" fill="#fff"/>
    <g id="icon-linkedin" transform="translate(43.312 44.223)">
      <path id="LinkedIn-2" data-name="LinkedIn" d="M37.421,31.481V45.316H29.4V32.408c0-3.243-1.16-5.456-4.063-5.456a4.389,4.389,0,0,0-4.115,2.934,5.488,5.488,0,0,0-.266,1.956V45.316H12.933s.108-21.862,0-24.127h8.022v3.42c-.016.026-.037.053-.053.078h.053v-.078a7.966,7.966,0,0,1,7.23-3.987C33.464,20.622,37.421,24.07,37.421,31.481ZM4.54,9.558C1.8,9.558,0,11.358,0,13.726A4.156,4.156,0,0,0,4.434,17.9h.054c2.8,0,4.538-1.855,4.538-4.171A4.167,4.167,0,0,0,4.54,9.558ZM.477,45.316H8.5V21.189H.477Z" transform="translate(0 -9.558)"/>
    </g>
  </g>
</svg>
