<svg xmlns="http://www.w3.org/2000/svg" xmlns:xlink="http://www.w3.org/1999/xlink" width="123" height="123" viewBox="0 0 123 123">
  <defs>
    <clipPath id="clip-Twitter">
      <rect width="123" height="123"/>
    </clipPath>
  </defs>
  <g id="Twitter" clip-path="url(#clip-Twitter)">
    <rect width="123" height="123" fill="#fff"/>
    <g id="icon-twitter" transform="translate(40.801 44.742)">
      <path id="Path_16" data-name="Path 16" d="M30.2,12.644a7.529,7.529,0,0,1,5.419,2.247.381.381,0,0,0,.264.132h.088a16.859,16.859,0,0,0,4.054-1.5c.044-.044.485-.264.573-.308a7.805,7.805,0,0,1-3.3,4.186,16.988,16.988,0,0,0,2.159-.4,15.77,15.77,0,0,0,2.159-.749,12.569,12.569,0,0,1-1.1,1.454,16.362,16.362,0,0,1-2.556,2.379.314.314,0,0,0-.132.264v1.322h0a22.415,22.415,0,0,1-5.375,13.967,20.3,20.3,0,0,1-10.354,6.521,23.923,23.923,0,0,1-3.877.7h-3.7a14.424,14.424,0,0,1-3.084-.4A21.686,21.686,0,0,1,4.557,39.7l-.132-.132c.573.044,1.1.088,1.674.088a15.3,15.3,0,0,0,4.23-.573,14.327,14.327,0,0,0,5.287-2.688,7.79,7.79,0,0,1-7.094-5.287,7.118,7.118,0,0,0,1.366.088,8,8,0,0,0,2.027-.264A7.666,7.666,0,0,1,7.553,28.2a7.492,7.492,0,0,1-1.674-4.891,7.128,7.128,0,0,0,3.393.925A7.7,7.7,0,0,1,6.981,14.054a2.207,2.207,0,0,1,.308.352,21.515,21.515,0,0,0,12.073,7.182,25.441,25.441,0,0,0,3.128.441h.176c.088,0,.088-.044.088-.176a7.852,7.852,0,0,1-.132-2.027,7.362,7.362,0,0,1,2.644-5.331,6.95,6.95,0,0,1,4.142-1.806c.176,0,.485-.044.793-.044m11.412,3.613h0M30.2,10h0a9.959,9.959,0,0,0-1.146.044,10.336,10.336,0,0,0-9.121,8.988h-.088A18.719,18.719,0,0,1,9.228,12.688l-.176-.22-.088-.132a2.67,2.67,0,0,0-2.027-.925H6.672a2.538,2.538,0,0,0-2.027,1.322,10.15,10.15,0,0,0-1.1,7.4,7.535,7.535,0,0,0,.4,1.322,2.73,2.73,0,0,0-.7,1.806,9.907,9.907,0,0,0,2.291,6.521,6.593,6.593,0,0,0,.485.573A2.789,2.789,0,0,0,6.1,31.942a11.253,11.253,0,0,0,3.172,4.582,12.427,12.427,0,0,1-3.128.4c-.441,0-.925-.044-1.41-.088H4.469a2.568,2.568,0,0,0-2.335,1.454,2.686,2.686,0,0,0,.352,2.952,2.553,2.553,0,0,0,.749.617,23.894,23.894,0,0,0,7.711,3.128,22.374,22.374,0,0,0,3.613.485h3.172a4.531,4.531,0,0,0,.793-.044,23.8,23.8,0,0,0,4.362-.793A21.678,21.678,0,0,0,34.43,37.318a24.606,24.606,0,0,0,5.992-15.333,1.074,1.074,0,0,0,0-.529,22.482,22.482,0,0,0,2.071-2.027c.485-.573.881-1.1,1.278-1.674a2.64,2.64,0,0,0-.661-3.7,2.534,2.534,0,0,0-.837-2.864,2.71,2.71,0,0,0-1.674-.617,2.655,2.655,0,0,0-1.278.352l-.088.044a4.076,4.076,0,0,1-.441.22,13.116,13.116,0,0,1-2.335.969A9.983,9.983,0,0,0,30.2,10Z" transform="translate(-1.846 -10)" stroke="#000" stroke-width="1"/>
    </g>
  </g>
</svg>
